HIERARCHY
ROOT Hips
{
	OFFSET 0.00000 0.00000 0.00000
	CHANNELS 6 Xposition Yposition Zposition Zrotation Yrotation Xrotation 
	JOINT LHipJoint
	{
		OFFSET 0 0 0
		CHANNELS 3 Zrotation Yrotation Xrotation
		JOINT LeftHip
		{
			OFFSET 1.58161 -1.81893 0.78828
			CHANNELS 3 Zrotation Yrotation Xrotation
			JOINT LeftKnee
			{
				OFFSET 2.53374 -6.96141 0.00000
				CHANNELS 3 Zrotation Yrotation Xrotation
				JOINT LeftAnkle
				{
					OFFSET 2.63509 -7.23986 0.00000
					CHANNELS 3 Zrotation Yrotation Xrotation
					JOINT LeftToe
					{
						OFFSET 0.14115 -0.38781 2.05350
						CHANNELS 3 Zrotation Yrotation Xrotation
						End Site
						{
							OFFSET 0.00000 -0.00000 1.05543
						}
					}
				}
			}
		}
	}
	JOINT RHipJoint
	{
		OFFSET 0 0 0
		CHANNELS 3 Zrotation Yrotation Xrotation
		JOINT RightHip
		{
			OFFSET -1.11138 -1.81893 0.78828
			CHANNELS 3 Zrotation Yrotation Xrotation
			JOINT RightKnee
			{
				OFFSET -2.58392 -7.09926 0.00000
				CHANNELS 3 Zrotation Yrotation Xrotation
				JOINT RightAnkle
				{
					OFFSET -2.66423 -7.31992 0.00000
					CHANNELS 3 Zrotation Yrotation Xrotation
					JOINT RightToe
					{
						OFFSET -0.18831 -0.51739 2.12114
						CHANNELS 3 Zrotation Yrotation Xrotation
						End Site
						{
							OFFSET -0.00000 -0.00000 1.09845
						}
					}
				}
			}
		}
	}
	JOINT lowerback
	{
		OFFSET 0 0 0
		CHANNELS 3 Zrotation Yrotation Xrotation
		JOINT Chest
		{
			OFFSET -0.01511 1.97958 -0.08829
			CHANNELS 3 Zrotation Yrotation Xrotation
			JOINT Chest2
			{
				OFFSET 0.08344 1.97334 -0.04330
				CHANNELS 3 Zrotation Yrotation Xrotation
				JOINT lowerneck
				{
					OFFSET 0 0 0
					CHANNELS 3 Zrotation Yrotation Xrotation
					JOINT Neck
					{
						OFFSET 0.00559 1.76246 0.31246
						CHANNELS 3 Zrotation Yrotation Xrotation
						JOINT Head
						{
							OFFSET -0.07011 1.80354 -0.30524
							CHANNELS 3 Zrotation Yrotation Xrotation
							End Site
							{
								OFFSET -0.02385 1.83547 -0.13906
							}
						}
					}
				}
				JOINT LeftCollar
				{
					OFFSET 0 0 0
					CHANNELS 3 Zrotation Yrotation Xrotation
					JOINT LeftShoulder
					{
						OFFSET 3.20667 1.30156 -0.60240
CHANNELS 3 Zrotation Xrotation Yrotation
						JOINT LeftElbow
						{
OFFSET 0 -4.956630 0.000000
CHANNELS 3 Zrotation Xrotation Yrotation
							JOINT LeftWrist
							{
OFFSET 0 -3.381770 0.000000
CHANNELS 3 Zrotation Xrotation Yrotation
								JOINT lhand
								{
									OFFSET 0 0 0
CHANNELS 3 Zrotation Xrotation Yrotation
									JOINT LFingers
									{
OFFSET 0 -0.662910 0.000000
CHANNELS 3 Zrotation Xrotation Yrotation
										End Site
										{
OFFSET 0 -0.534450 0.000000
										}
									}
								}
								JOINT LThumb
								{
OFFSET 0 0.000000 0.000000
CHANNELS 3 Zrotation Xrotation Yrotation
									End Site
									{
OFFSET 0 -0.542610 0.542610
									}
								}
							}
						}
					}
				}
				JOINT RightCollar
				{
					OFFSET 0 0 0
					CHANNELS 3 Zrotation Yrotation Xrotation
					JOINT RightShoulder
					{
						OFFSET -3.06877 1.34672 -0.60964
CHANNELS 3 Zrotation Xrotation Yrotation
						JOINT RightElbow
						{
OFFSET 0 -5.083650 0.000000
CHANNELS 3 Zrotation Xrotation Yrotation
							JOINT RightWrist
							{
OFFSET 0 -3.359840 0.000000
CHANNELS 3 Zrotation Xrotation Yrotation
								JOINT rhand
								{
									OFFSET 0 0 0
CHANNELS 3 Zrotation Xrotation Yrotation
									JOINT RFingers
									{
OFFSET 0 -0.820760 0.000000
CHANNELS 3 Zrotation Xrotation Yrotation
										End Site
										{
OFFSET 0 -0.661720 0.000000
										}
									}
								}
								JOINT RThumb
								{
OFFSET 0 0.000000 0.000000
CHANNELS 3 Zrotation Xrotation Yrotation
									End Site
									{
OFFSET 0 -0.671820 0.671820
									}
								}
							}
						}
					}
				}
			}
		}
	}
}
MOTION
Frames: 4
Frame Time: 0.008333333333333333
-11.548058 17.987491 6.614841 -110.553147 85.592321 -93.504176 0.000000 0.000000 0.000000 -5.410370 -7.188846 -28.815497 1.708237 8.229919 23.414655 0.188007 -4.232429 -7.813149 0.696258 -5.334042 -14.863897 0.000000 0.000000 0.000000 13.697569 8.023419 -29.220284 -1.798532 -8.433121 24.037617 -0.088740 -3.803071 -8.300403 -0.002246 0.303310 -0.833404 -1.044758 1.772766 4.519179 4.317565 2.446074 4.080215 4.970310 1.209169 1.441327 1.573187 -2.441025 -11.549116 -2.884111 -0.416574 41.802591 -1.448576 0.407869 17.191943 0.000000 0.000000 0.000000 -9.833047 -21.325324 -81.647263 20.499608 -31.239527 5.788206 13.654660 -40.813388 -58.794944 0.000000 0.000000 0.000000 -7.125000 0.000000 0.000000 13.221079 -2.874461 167.105506 0.000000 0.000000 0.000000 9.870159 -21.644638 46.464922 -17.086047 -26.970969 -4.126298 -28.497061 -36.104543 14.136302 0.000000 0.000000 0.000000 7.125000 0.000000 0.000000 -0.976788 45.968564 0.023325
-11.547111 17.989747 6.616372 -108.394092 85.577516 -91.395761 0.000000 0.000000 0.000000 -5.337477 -7.120673 -28.717579 1.710896 8.236026 23.433321 0.195994 -4.220872 -7.963073 0.708102 -5.378096 -14.990234 0.000000 0.000000 0.000000 13.771532 8.106218 -29.140297 -1.792181 -8.419039 23.994242 -0.089359 -3.759110 -8.273917 -0.002069 0.290140 -0.797218 -1.058505 1.792506 4.565843 4.312687 2.472397 4.101951 4.970917 1.222134 1.434969 1.586175 -2.433593 -11.507525 -2.928302 -0.395967 41.767687 -1.466875 0.410494 17.161582 0.000000 0.000000 0.000000 -9.825361 -21.326319 -81.627566 20.502024 -31.242443 5.789479 13.713866 -40.713083 -58.834607 0.000000 0.000000 0.000000 -7.125000 0.000000 0.000000 13.205800 -2.825103 167.109128 0.000000 0.000000 0.000000 10.006402 -21.717312 46.237085 -16.978632 -26.829478 -4.077685 -28.665493 -35.824672 14.036945 0.000000 0.000000 0.000000 7.125000 0.000000 0.000000 -1.146897 45.880663 0.024873
-11.546282 17.991677 6.617765 -106.749594 85.550169 -89.758893 0.000000 0.000000 0.000000 -5.272313 -7.071440 -28.677510 1.712735 8.240265 23.446195 0.200176 -4.143440 -8.031940 0.688041 -5.301666 -14.771334 0.000000 0.000000 0.000000 13.826363 8.217524 -29.084409 -1.783639 -8.400096 23.935981 -0.087029 -3.776071 -8.230019 -0.002630 0.320895 -0.881759 -1.058225 1.797104 4.582346 4.307966 2.478462 4.098975 4.964861 1.225346 1.422302 1.583519 -2.410434 -11.494003 -2.939673 -0.353771 41.778793 -1.464643 0.425551 17.166181 0.000000 0.000000 0.000000 -9.785481 -21.304550 -81.660430 20.543647 -31.291767 5.811112 13.941506 -40.433521 -58.941439 0.000000 0.000000 0.000000 -7.125000 0.000000 0.000000 13.142536 -2.676613 167.137951 0.000000 0.000000 0.000000 10.142081 -21.762898 45.915689 -16.897440 -26.722326 -4.041067 -28.816946 -35.626206 13.908993 0.000000 0.000000 0.000000 7.125000 0.000000 0.000000 -1.303446 45.758172 0.024247
-11.545333 17.992421 6.618354 -105.870314 85.523427 -88.829900 0.000000 0.000000 0.000000 -5.233643 -7.058586 -28.711339 1.711715 8.237916 23.439010 0.198139 -3.976157 -7.972809 0.646234 -5.142464 -14.315480 0.000000 0.000000 0.000000 13.859480 8.289717 -29.093418 -1.773901 -8.378346 23.869249 -0.084930 -3.777961 -8.177615 -0.002569 0.311754 -0.856597 -1.056350 1.800305 4.517371 4.305773 2.481541 4.092210 4.963498 1.226253 1.451463 1.572226 -2.391121 -11.498675 -2.904784 -0.336584 41.781757 -1.444093 0.434729 17.170146 0.000000 0.000000 0.000000 -9.799690 -21.303406 -81.712754 20.559772 -31.310842 5.819469 13.864588 -40.534546 -58.911976 0.000000 0.000000 0.000000 -7.125000 0.000000 0.000000 13.165145 -2.720602 167.125506 0.000000 0.000000 0.000000 10.190243 -21.792283 45.659963 -16.868041 -26.683489 -4.027871 -28.907786 -35.528275 13.786485 0.000000 0.000000 0.000000 7.125000 0.000000 0.000000 -1.401705 45.633203 0.021913
